# xmcd
#
# Track frame offsets: 
#        150
#        19841
#        35068
#        50241
#        52538
#        71522
#        88722
#        110754
#        131615
#        149809
#        161093
#        175837
#        194285
#        212455
#        232692
#
# Disc length: 3294 seconds
#
# Revision: 1
# Processed by: cddbd v1.5.2PL0 Copyright (c) Steve Scherf et al.
# Submitted via: ExactAudioCopy v1.0b1
#
DISCID=d50cdc0f
DTITLE=Sole - Selling Live Water
DYEAR=2003
DGENRE=Hip-Hop
TTITLE0=Da Baddest Poet
TTITLE1=Shoot The Messenger
TTITLE2=Salt On Everything
TTITLE3=I Hope You Like My Stupid Painting
TTITLE4=Respect Pt 3
TTITLE5=Tokyo
TTITLE6=Plutonium
TTITLE7=Sebago
TTITLE8=Slow, Cold Drops
TTITLE9=Pawn In The Game Pt 1
TTITLE10=Pawn In The Game Pt 2
TTITLE11=The Priziest Horse
TTITLE12=Teepee On A Highway Blues
TTITLE13=Selling Live Water
TTITLE14=Ode To The War On Terrorism
EXTD=
EXTT0=
EXTT1=
EXTT2=
EXTT3=
EXTT4=
EXTT5=
EXTT6=
EXTT7=
EXTT8=
EXTT9=
EXTT10=
EXTT11=
EXTT12=
EXTT13=
EXTT14=
PLAYORDER=
